HIERARCHY
ROOT Hips
{
	OFFSET 0.000000 0.000000 0.000000
	CHANNELS 6 Xposition Yposition Zposition Zrotation Yrotation Xrotation 
	JOINT LHipJoint
	{
		OFFSET 0.000000 0.000000 0.000000
		CHANNELS 3 Zrotation Yrotation Xrotation
		JOINT LeftUpLeg
		{
			OFFSET 1.363060 -1.794630 0.839290
			CHANNELS 3 Zrotation Yrotation Xrotation
			JOINT LeftLeg
			{
				OFFSET 2.448110 -6.726130 0.000000
				CHANNELS 3 Zrotation Yrotation Xrotation
				JOINT LeftFoot
				{
					OFFSET 2.562200 -7.039590 0.000000
					CHANNELS 3 Zrotation Yrotation Xrotation
					JOINT LeftToeBase
					{
						OFFSET 0.157640 -0.433110 2.322550
						CHANNELS 3 Zrotation Yrotation Xrotation
						End Site
						{
							OFFSET 0.000000 0.000000 0.000000
						}
					}
				}
			}
		}
	}
	JOINT RHipJoint
	{
		OFFSET 0.000000 0.000000 0.000000
		CHANNELS 3 Zrotation Yrotation Xrotation
		JOINT RightUpLeg
		{
			OFFSET -1.305520 -1.794630 0.839290
			CHANNELS 3 Zrotation Yrotation Xrotation
			JOINT RightLeg
			{
				OFFSET -2.542530 -6.985550 0.000000
				CHANNELS 3 Zrotation Yrotation Xrotation
				JOINT RightFoot
				{
					OFFSET -2.568260 -7.056230 0.000000
					CHANNELS 3 Zrotation Yrotation Xrotation
					JOINT RightToeBase
					{
						OFFSET -0.164730 -0.452590 2.363150
						CHANNELS 3 Zrotation Yrotation Xrotation
						End Site
						{
							OFFSET 0.000000 0.000000 0.000000
						}
					}
				}
			}
		}
	}
}
MOTION
Frames: 14
Frame Time: 0.008333
-3.063932 17.546863 1.324498 -50.986293 -66.074034 71.440732 -11.503132 -5.774730 -4.043328 9.496383 -2.009346 -25.695049 0.376229 0.064378 11.664592 1.164211 6.350472 -2.813944 0.640700 -0.000000 -41.628500 5.425506 2.674133 4.592434 0.647204 -0.317352 -97.154104 4.777770 1.640104 -2.479588 0.387613 -1.131676 4.717663 -1.734900 -0.000000 -75.807200
-3.062182 17.548288 1.317970 -51.235268 -65.967198 72.008086 -11.444809 -5.812669 -4.040377 9.658699 -1.893085 -26.045676 0.380793 0.046301 11.581812 1.159731 6.314355 -2.745718 0.648900 0.000000 -41.762100 5.454698 2.562678 4.699731 0.632594 0.083767 -97.676417 4.863200 1.606334 -1.799748 0.409403 -0.974923 3.444622 -1.691900 -0.000000 -75.812099
-3.060712 17.548858 1.311450 -51.621348 -65.860669 72.679205 -11.378579 -5.843495 -4.028521 9.828748 -1.703630 -26.421391 0.381583 0.030048 11.568114 1.152602 6.251899 -2.709123 0.650800 0.000000 -41.878401 5.475944 2.476783 4.770504 0.708060 0.564217 -97.590390 4.898234 1.648297 -1.809349 0.402840 -0.992997 3.001234 -1.700800 0.000000 -75.959800
-3.059620 17.548567 1.304892 -52.130459 -65.752407 73.438346 -11.305636 -5.866855 -4.007456 10.004233 -1.443186 -26.819495 0.378147 0.015943 11.622487 1.142181 6.159015 -2.703566 0.645900 -0.000000 -41.978100 5.489661 2.418057 4.801854 0.895291 1.114536 -96.917551 4.888904 1.761259 -2.484267 0.372384 -1.152210 3.397665 -1.746900 0.000001 -76.180799
-3.058516 17.547635 1.298110 -52.743463 -65.644867 74.251810 -11.225620 -5.881053 -3.980304 10.177705 -1.129262 -27.206299 0.371205 0.003864 11.721029 1.129735 6.048314 -2.718891 0.636800 -0.000000 -42.069700 5.496909 2.390169 4.781276 1.217193 1.717031 -95.684508 4.842032 1.930590 -3.759584 0.317419 -1.402292 4.620336 -1.810800 -0.000000 -76.460500
-3.057697 17.546166 1.290989 -53.418535 -65.532880 75.074717 -11.142237 -5.884933 -3.944504 10.347464 -0.774505 -27.574301 0.360853 -0.006078 11.857152 1.114271 5.914439 -2.751432 0.623200 0.000000 -42.155700 5.499424 2.393065 4.701302 1.704639 2.341730 -93.949589 4.771816 2.137005 -5.539657 0.238381 -1.675067 6.615774 -1.868799 0.000000 -76.749100
-3.057133 17.544403 1.283471 -54.110397 -65.416438 75.855037 -11.058067 -5.877633 -3.900690 10.508884 -0.403879 -27.900416 0.348213 -0.014170 12.011250 1.096484 5.765390 -2.792898 0.606900 0.000000 -42.242300 5.500527 2.425985 4.554994 2.359421 2.953246 -91.782754 4.687662 2.357194 -7.692020 0.138382 -1.916434 9.282576 -1.903600 0.000000 -76.980300
-3.057122 17.542419 1.275344 -54.768563 -65.295447 76.544849 -10.976136 -5.858924 -3.847716 10.654725 -0.031543 -28.184352 0.332763 -0.020955 12.176990 1.075238 5.595082 -2.840255 0.587700 0.000000 -42.325200 5.505729 2.483837 4.345185 3.177120 3.515639 -89.276493 4.600920 2.571394 -10.081708 0.028059 -2.069683 12.494366 -1.896800 0.000000 -77.083200
-3.057753 17.540470 1.266555 -55.353318 -65.206278 77.155766 -10.905551 -5.843262 -3.807705 10.774823 0.311030 -28.427379 0.313815 -0.025759 12.330002 1.052363 5.418243 -2.885643 0.567700 -0.000000 -42.408300 5.552510 2.438922 4.173336 3.975468 4.113286 -87.673899 4.629110 2.534108 -10.536281 -0.023152 -2.032809 14.918511 -1.848500 -0.000000 -77.029100
-3.059158 17.538738 1.257036 -55.840368 -65.164920 77.694772 -10.849902 -5.837968 -3.790457 10.864960 0.604853 -28.637551 0.291017 -0.028892 12.456413 1.028719 5.242044 -2.923596 0.548200 -0.000000 -42.492899 5.655174 2.208470 4.098445 4.651022 4.813979 -87.759132 4.828626 2.085531 -7.682906 0.032408 -1.773229 15.665524 -1.765000 -0.000000 -76.824600
-3.061438 17.537303 1.246908 -56.206475 -65.115644 78.071353 -10.796441 -5.820372 -3.761324 10.934785 0.849843 -28.796328 0.268629 -0.033820 12.556540 1.004182 5.066713 -2.949731 0.530000 0.000000 -42.579501 5.756855 1.991783 3.971342 5.388352 5.424054 -87.668430 4.992767 1.605930 -4.838188 0.094482 -1.479928 16.520686 -1.655400 0.000000 -76.520301
-3.064716 17.536375 1.236067 -56.443641 -65.060761 78.285534 -10.743555 -5.790105 -3.720555 10.981471 1.040874 -28.906003 0.247125 -0.041508 12.621522 0.979521 4.898457 -2.958519 0.514300 -0.000000 -42.667201 5.856906 1.794501 3.798030 6.158348 5.931375 -87.378404 5.112513 1.117486 -2.088043 0.156388 -1.172719 17.420068 -1.524600 -0.000000 -76.210200
-3.069215 17.535755 1.225085 -56.545693 -64.991761 78.347618 -10.695409 -5.750014 -3.663581 11.018794 1.172994 -28.990779 0.228609 -0.051803 12.659481 0.955365 4.738527 -2.953780 0.500900 -0.000000 -42.758701 5.950741 1.617120 3.589554 6.940828 6.331366 -86.885266 5.188571 0.642334 0.499356 0.211043 -0.880640 18.303726 -1.385900 0.000000 -75.988500
-3.075010 17.535344 1.214230 -56.515305 -64.904165 78.269153 -10.654780 -5.702470 -3.588532 11.054343 1.248857 -29.068773 0.213749 -0.064329 12.679753 0.931472 4.583141 -2.939270 0.488900 -0.000000 -42.852600 6.036010 1.457438 3.356063 7.728168 6.626265 -86.200441 5.228134 0.194986 2.892832 0.255345 -0.617063 19.120764 -1.248100 0.000001 -75.951700
